<svg width="30" height="30" viewBox="0 0 30 30" fill="none" xmlns="http://www.w3.org/2000/svg">
<path fill-rule="evenodd" clip-rule="evenodd" d="M11.25 15C11.25 15.2486 11.3488 15.4871 11.5246 15.6629C11.7004 15.8387 11.9389 15.9375 12.1875 15.9375H23.0494L19.0237 19.9613C18.8477 20.1373 18.7488 20.376 18.7488 20.625C18.7488 20.874 18.8477 21.1127 19.0237 21.2887C19.1998 21.4648 19.4385 21.5637 19.6875 21.5637C19.9365 21.5637 20.1752 21.4648 20.3512 21.2887L25.9762 15.6637C26.0636 15.5767 26.1328 15.4732 26.1801 15.3593C26.2273 15.2454 26.2517 15.1233 26.2517 15C26.2517 14.8767 26.2273 14.7546 26.1801 14.6407C26.1328 14.5268 26.0636 14.4233 25.9762 14.3363L20.3512 8.71125C20.1752 8.53521 19.9365 8.43632 19.6875 8.43632C19.4385 8.43632 19.1998 8.53521 19.0237 8.71125C18.8477 8.88729 18.7488 9.12605 18.7488 9.375C18.7488 9.62395 18.8477 9.86271 19.0237 10.0387L23.0494 14.0625H12.1875C11.9389 14.0625 11.7004 14.1613 11.5246 14.3371C11.3488 14.5129 11.25 14.7514 11.25 15ZM6.5625 28.125C6.31386 28.125 6.0754 28.0262 5.89959 27.8504C5.72377 27.6746 5.625 27.4361 5.625 27.1875V2.8125C5.625 2.56386 5.72377 2.3254 5.89959 2.14959C6.0754 1.97377 6.31386 1.875 6.5625 1.875C6.81114 1.875 7.0496 1.97377 7.22541 2.14959C7.40123 2.3254 7.5 2.56386 7.5 2.8125V27.1875C7.5 27.4361 7.40123 27.6746 7.22541 27.8504C7.0496 28.0262 6.81114 28.125 6.5625 28.125Z" fill="black"/>
</svg>
