<svg width="30" height="30" viewBox="0 0 30 30" fill="none" xmlns="http://www.w3.org/2000/svg">
<path fill-rule="evenodd" clip-rule="evenodd" d="M23.4372 28.125C23.1886 28.125 22.9501 28.0262 22.7743 27.8504C22.5985 27.6746 22.4997 27.4361 22.4997 27.1875V2.8125C22.4997 2.56386 22.5985 2.3254 22.7743 2.14959C22.9501 1.97377 23.1886 1.875 23.4372 1.875C23.6859 1.875 23.9243 1.97377 24.1001 2.14959C24.2759 2.3254 24.3747 2.56386 24.3747 2.8125V27.1875C24.3747 27.4361 24.2759 27.6746 24.1001 27.8504C23.9243 28.0262 23.6859 28.125 23.4372 28.125ZM18.7497 15C18.7497 15.2486 18.651 15.4871 18.4751 15.6629C18.2993 15.8387 18.0609 15.9375 17.8122 15.9375H6.95035L10.976 19.9613C11.0631 20.0484 11.1323 20.1519 11.1795 20.2658C11.2266 20.3797 11.2509 20.5017 11.2509 20.625C11.2509 20.7483 11.2266 20.8703 11.1795 20.9842C11.1323 21.0981 11.0631 21.2016 10.976 21.2887C10.8888 21.3759 10.7853 21.4451 10.6714 21.4922C10.5576 21.5394 10.4355 21.5637 10.3122 21.5637C10.189 21.5637 10.0669 21.5394 9.953 21.4922C9.83912 21.4451 9.73564 21.3759 9.64847 21.2887L4.02347 15.6637C3.93617 15.5767 3.8669 15.4732 3.81964 15.3593C3.77237 15.2454 3.74805 15.1233 3.74805 15C3.74805 14.8767 3.77237 14.7546 3.81964 14.6407C3.8669 14.5268 3.93617 14.4233 4.02347 14.3363L9.64847 8.71125C9.82451 8.53521 10.0633 8.43632 10.3122 8.43632C10.5612 8.43632 10.7999 8.53521 10.976 8.71125C11.152 8.88729 11.2509 9.12605 11.2509 9.375C11.2509 9.62395 11.152 9.86271 10.976 10.0387L6.95035 14.0625H17.8122C18.0609 14.0625 18.2993 14.1613 18.4751 14.3371C18.651 14.5129 18.7497 14.7514 18.7497 15Z" fill="black"/>
</svg>
